<svg xmlns="http://www.w3.org/2000/svg" xmlns:xlink="http://www.w3.org/1999/xlink" width="500" zoomAndPan="magnify" viewBox="0 0 375 374.999991" height="500" preserveAspectRatio="xMidYMid meet" version="1.2"><defs><clipPath id="ce822f5dc2"><path d="M 58.011719 101 L 309 101 L 309 274.15625 L 58.011719 274.15625 Z M 58.011719 101 "/></clipPath><clipPath id="9016ab62d7"><path d="M 85 100.90625 L 316.761719 100.90625 L 316.761719 274.15625 L 85 274.15625 Z M 85 100.90625 "/></clipPath><filter x="0%" y="0%" width="100%" filterUnits="objectBoundingBox" id="408761d786" height="100%"><feColorMatrix values="0 0 0 0 1 0 0 0 0 1 0 0 0 0 1 0 0 0 1 0" type="matrix" in="SourceGraphic"/></filter><clipPath id="a92afceafc"><path d="M 3.382812 2.457031 L 14.394531 2.457031 L 14.394531 13.226562 L 3.382812 13.226562 Z M 3.382812 2.457031 "/></clipPath><clipPath id="db52be99a0"><path d="M 4.820312 9.035156 C 5.738281 6.894531 6.535156 6.21875 7.269531 5.976562 C 8.066406 5.730469 9.230469 5.667969 9.839844 6.035156 C 10.332031 6.34375 10.636719 7.078125 10.699219 7.566406 C 10.820312 8.054688 10.820312 8.546875 10.574219 9.097656 C 10.085938 10.136719 7.941406 12.464844 7.148438 12.707031 C 6.78125 12.769531 6.351562 12.648438 6.289062 12.464844 C 6.167969 12.28125 6.230469 11.851562 6.472656 11.667969 C 7.148438 11.179688 11.859375 12.648438 12.78125 11.851562 C 13.390625 11.363281 13.390625 9.527344 13.148438 9.28125 C 13.023438 9.15625 12.59375 9.585938 12.472656 9.464844 C 12.289062 9.402344 12.289062 9.097656 12.226562 8.730469 C 12.105469 7.996094 12.71875 6.21875 12.289062 5.421875 C 11.859375 4.6875 10.574219 4.320312 9.71875 4.078125 C 8.859375 3.832031 7.941406 3.648438 7.207031 3.832031 C 6.535156 3.953125 5.863281 4.320312 5.433594 4.75 C 5.066406 5.117188 4.757812 5.730469 4.636719 6.21875 C 4.515625 6.648438 4.515625 7.136719 4.699219 7.566406 C 4.941406 8.054688 5.984375 8.546875 5.984375 8.914062 C 6.046875 9.15625 5.679688 9.585938 5.492188 9.648438 C 5.308594 9.648438 4.882812 9.402344 4.820312 9.21875 C 4.820312 9.035156 5.433594 8.363281 5.617188 8.421875 C 5.738281 8.484375 5.863281 9.464844 5.738281 9.527344 C 5.492188 9.648438 3.71875 8.238281 3.472656 7.320312 C 3.230469 6.34375 3.839844 4.628906 4.699219 3.832031 C 5.554688 2.914062 7.390625 2.363281 8.800781 2.484375 C 10.390625 2.667969 12.902344 4.015625 13.636719 5.179688 C 14.125 6.035156 13.882812 7.6875 13.636719 8.179688 C 13.515625 8.421875 13.023438 8.421875 13.023438 8.546875 C 13.085938 8.605469 13.882812 8.484375 14.066406 8.667969 C 14.308594 8.789062 14.371094 9.15625 14.371094 9.527344 C 14.371094 10.320312 14.066406 12.339844 13.332031 12.890625 C 12.65625 13.382812 11.371094 13.136719 10.332031 13.078125 C 9.042969 12.953125 6.472656 13.015625 6.230469 12.339844 C 5.921875 11.546875 9.351562 9.464844 9.597656 8.421875 C 9.65625 7.871094 9.472656 7.199219 9.105469 7.015625 C 8.675781 6.769531 7.269531 7.261719 6.71875 7.75 C 6.167969 8.238281 6.046875 9.648438 5.617188 9.769531 C 5.371094 9.769531 4.820312 9.035156 4.820312 9.035156 "/></clipPath><clipPath id="ab5835ed48"><path d="M 0.382812 0.457031 L 11.394531 0.457031 L 11.394531 11.226562 L 0.382812 11.226562 Z M 0.382812 0.457031 "/></clipPath><clipPath id="46d059f2a5"><path d="M 1.820312 7.035156 C 2.738281 4.894531 3.535156 4.21875 4.269531 3.976562 C 5.066406 3.730469 6.230469 3.667969 6.839844 4.035156 C 7.332031 4.34375 7.636719 5.078125 7.699219 5.566406 C 7.820312 6.054688 7.820312 6.546875 7.574219 7.097656 C 7.085938 8.136719 4.941406 10.464844 4.148438 10.707031 C 3.78125 10.769531 3.351562 10.648438 3.289062 10.464844 C 3.167969 10.28125 3.230469 9.851562 3.472656 9.667969 C 4.148438 9.179688 8.859375 10.648438 9.78125 9.851562 C 10.390625 9.363281 10.390625 7.527344 10.148438 7.28125 C 10.023438 7.15625 9.59375 7.585938 9.472656 7.464844 C 9.289062 7.402344 9.289062 7.097656 9.226562 6.730469 C 9.105469 5.996094 9.71875 4.21875 9.289062 3.421875 C 8.859375 2.6875 7.574219 2.320312 6.71875 2.078125 C 5.859375 1.832031 4.941406 1.648438 4.207031 1.832031 C 3.535156 1.953125 2.863281 2.320312 2.433594 2.75 C 2.066406 3.117188 1.757812 3.730469 1.636719 4.21875 C 1.515625 4.648438 1.515625 5.136719 1.699219 5.566406 C 1.941406 6.054688 2.984375 6.546875 2.984375 6.914062 C 3.046875 7.15625 2.679688 7.585938 2.492188 7.648438 C 2.308594 7.648438 1.882812 7.402344 1.820312 7.21875 C 1.820312 7.035156 2.433594 6.363281 2.617188 6.421875 C 2.738281 6.484375 2.863281 7.464844 2.738281 7.527344 C 2.492188 7.648438 0.71875 6.238281 0.472656 5.320312 C 0.230469 4.34375 0.839844 2.628906 1.699219 1.832031 C 2.554688 0.914062 4.390625 0.363281 5.800781 0.484375 C 7.390625 0.667969 9.902344 2.015625 10.636719 3.179688 C 11.125 4.035156 10.882812 5.6875 10.636719 6.179688 C 10.515625 6.421875 10.023438 6.421875 10.023438 6.546875 C 10.085938 6.605469 10.882812 6.484375 11.066406 6.667969 C 11.308594 6.789062 11.371094 7.15625 11.371094 7.527344 C 11.371094 8.320312 11.066406 10.339844 10.332031 10.890625 C 9.65625 11.382812 8.371094 11.136719 7.332031 11.078125 C 6.042969 10.953125 3.472656 11.015625 3.230469 10.339844 C 2.921875 9.546875 6.351562 7.464844 6.597656 6.421875 C 6.65625 5.871094 6.472656 5.199219 6.105469 5.015625 C 5.675781 4.769531 4.269531 5.261719 3.71875 5.75 C 3.167969 6.238281 3.046875 7.648438 2.617188 7.769531 C 2.371094 7.769531 1.820312 7.035156 1.820312 7.035156 "/></clipPath><clipPath id="9ed234148c"><rect x="0" width="12" y="0" height="12"/></clipPath><clipPath id="c1be196f85"><rect x="0" width="17" y="0" height="16"/></clipPath><clipPath id="e50b2bd735"><path d="M 3.363281 2.894531 L 10.488281 2.894531 L 10.488281 13.125 L 3.363281 13.125 Z M 3.363281 2.894531 "/></clipPath><clipPath id="1100938961"><path d="M 3.636719 5.035156 C 9.328125 2.648438 9.820312 2.710938 10.125 3.199219 C 10.800781 4.238281 10.246094 8.832031 10.003906 10.484375 C 9.820312 11.464844 9.820312 12.261719 9.269531 12.628906 C 8.71875 13.054688 7.125 13.300781 6.636719 12.8125 C 5.902344 12.078125 7.25 8.035156 6.636719 7.546875 C 6.328125 7.300781 5.59375 8.035156 5.226562 7.851562 C 4.738281 7.605469 4.125 5.894531 4.308594 5.402344 C 4.433594 5.097656 4.984375 4.792969 5.167969 4.851562 C 5.351562 4.914062 5.59375 5.527344 5.472656 5.648438 C 5.410156 5.832031 4.554688 5.953125 4.492188 5.832031 C 4.371094 5.710938 4.921875 4.792969 5.105469 4.851562 C 5.351562 4.851562 5.289062 6.382812 5.71875 6.8125 C 6.144531 7.117188 7.1875 6.6875 7.554688 7.117188 C 8.105469 7.789062 7.066406 11.464844 7.492188 11.894531 C 7.617188 12.015625 7.921875 12.015625 8.105469 11.832031 C 8.839844 11.15625 10.1875 4.484375 9.269531 3.75 C 8.472656 3.136719 4.984375 6.199219 4.066406 6.199219 C 3.699219 6.136719 3.453125 5.953125 3.390625 5.769531 C 3.269531 5.585938 3.699219 5.035156 3.699219 5.035156 "/></clipPath><clipPath id="25a2226b89"><path d="M 0.363281 0.894531 L 7.488281 0.894531 L 7.488281 11.125 L 0.363281 11.125 Z M 0.363281 0.894531 "/></clipPath><clipPath id="86d35b6aee"><path d="M 0.636719 3.035156 C 6.328125 0.648438 6.820312 0.710938 7.125 1.199219 C 7.800781 2.238281 7.246094 6.832031 7.003906 8.484375 C 6.820312 9.464844 6.820312 10.261719 6.269531 10.628906 C 5.71875 11.054688 4.125 11.300781 3.636719 10.8125 C 2.902344 10.078125 4.25 6.035156 3.636719 5.546875 C 3.328125 5.300781 2.59375 6.035156 2.226562 5.851562 C 1.738281 5.605469 1.125 3.894531 1.308594 3.402344 C 1.433594 3.097656 1.984375 2.792969 2.167969 2.851562 C 2.351562 2.914062 2.59375 3.527344 2.472656 3.648438 C 2.410156 3.832031 1.554688 3.953125 1.492188 3.832031 C 1.371094 3.710938 1.921875 2.792969 2.105469 2.851562 C 2.351562 2.851562 2.289062 4.382812 2.71875 4.8125 C 3.144531 5.117188 4.1875 4.6875 4.554688 5.117188 C 5.105469 5.789062 4.066406 9.464844 4.492188 9.894531 C 4.617188 10.015625 4.921875 10.015625 5.105469 9.832031 C 5.839844 9.15625 7.1875 2.484375 6.269531 1.75 C 5.472656 1.136719 1.984375 4.199219 1.066406 4.199219 C 0.699219 4.136719 0.453125 3.953125 0.390625 3.769531 C 0.269531 3.585938 0.699219 3.035156 0.699219 3.035156 "/></clipPath><clipPath id="83238d4be3"><rect x="0" width="8" y="0" height="12"/></clipPath><clipPath id="a1ca60424f"><rect x="0" width="13" y="0" height="16"/></clipPath><clipPath id="01c4c074cc"><path d="M 3.246094 4.238281 L 9.636719 4.238281 L 9.636719 12.695312 L 3.246094 12.695312 Z M 3.246094 4.238281 "/></clipPath><clipPath id="d3ce40a812"><path d="M 5.238281 4.625 C 9.511719 4.027344 9.664062 4.25 9.585938 4.703125 C 9.585938 5.976562 6.210938 12.050781 4.863281 12.578125 C 4.335938 12.800781 3.664062 12.5 3.4375 12.125 C 3.210938 11.902344 3.289062 11.453125 3.363281 10.925781 C 3.664062 9.953125 6.0625 7.550781 5.761719 6.953125 C 5.613281 6.5 4.1875 6.875 3.886719 6.578125 C 3.738281 6.351562 3.664062 5.902344 3.8125 5.601562 C 4.113281 5.078125 6.8125 4.175781 6.886719 4.25 C 6.886719 4.402344 4.335938 5.601562 4.414062 5.976562 C 4.488281 6.351562 6.4375 6.050781 6.664062 6.578125 C 7.039062 7.402344 3.960938 10.550781 4.113281 11.300781 C 4.113281 11.601562 4.488281 11.902344 4.710938 11.902344 C 5.613281 11.75 9.511719 5.375 8.914062 4.625 C 8.613281 4.101562 5.6875 5.601562 5.3125 5.300781 C 5.164062 5.226562 5.238281 4.625 5.238281 4.625 "/></clipPath><clipPath id="93154a1768"><path d="M 0.246094 0.238281 L 6.636719 0.238281 L 6.636719 8.695312 L 0.246094 8.695312 Z M 0.246094 0.238281 "/></clipPath><clipPath id="0cbc4ec51d"><path d="M 2.238281 0.625 C 6.511719 0.0273438 6.664062 0.25 6.585938 0.703125 C 6.585938 1.976562 3.210938 8.050781 1.863281 8.578125 C 1.335938 8.800781 0.664062 8.5 0.4375 8.125 C 0.210938 7.902344 0.289062 7.453125 0.363281 6.925781 C 0.664062 5.953125 3.0625 3.550781 2.761719 2.953125 C 2.613281 2.5 1.1875 2.875 0.886719 2.578125 C 0.738281 2.351562 0.664062 1.902344 0.8125 1.601562 C 1.113281 1.078125 3.8125 0.175781 3.886719 0.25 C 3.886719 0.402344 1.335938 1.601562 1.414062 1.976562 C 1.488281 2.351562 3.4375 2.050781 3.664062 2.578125 C 4.039062 3.402344 0.960938 6.550781 1.113281 7.300781 C 1.113281 7.601562 1.488281 7.902344 1.710938 7.902344 C 2.613281 7.75 6.511719 1.375 5.914062 0.625 C 5.613281 0.101562 2.6875 1.601562 2.3125 1.300781 C 2.164062 1.226562 2.238281 0.625 2.238281 0.625 "/></clipPath><clipPath id="97d567117d"><rect x="0" width="7" y="0" height="9"/></clipPath><clipPath id="5cbb2843ad"><rect x="0" width="13" y="0" height="16"/></clipPath><clipPath id="2c248c352b"><path d="M 3.308594 3.648438 L 10 3.648438 L 10 12.304688 L 3.308594 12.304688 Z M 3.308594 3.648438 "/></clipPath><clipPath id="759b5398d0"><path d="M 6.738281 5.226562 C 4.261719 11.226562 4.710938 11.601562 5.011719 11.601562 C 5.539062 11.601562 6.136719 11 6.664062 10.402344 C 7.488281 9.425781 8.613281 6.652344 8.914062 5.601562 C 9.0625 5.152344 9.289062 4.777344 9.136719 4.550781 C 8.988281 4.328125 8.539062 4.25 8.164062 4.328125 C 7.488281 4.476562 5.914062 6.425781 5.761719 6.277344 C 5.6875 6.203125 6.585938 4.25 7.261719 3.875 C 7.9375 3.5 9.511719 3.652344 9.886719 4.101562 C 10.1875 4.476562 9.8125 5.152344 9.585938 5.902344 C 9.210938 7.25 8.164062 10.101562 7.113281 11.152344 C 6.4375 11.828125 5.386719 12.277344 4.710938 12.277344 C 4.1875 12.277344 3.664062 12.050781 3.4375 11.75 C 3.289062 11.453125 3.363281 11.078125 3.4375 10.550781 C 3.738281 9.351562 5.3125 5.226562 6.0625 4.925781 C 6.289062 4.851562 6.738281 5.226562 6.738281 5.226562 "/></clipPath><clipPath id="479082beae"><path d="M 0.308594 0.648438 L 7 0.648438 L 7 9.304688 L 0.308594 9.304688 Z M 0.308594 0.648438 "/></clipPath><clipPath id="b68b55ff4e"><path d="M 3.738281 2.226562 C 1.261719 8.226562 1.710938 8.601562 2.011719 8.601562 C 2.539062 8.601562 3.136719 8 3.664062 7.402344 C 4.488281 6.425781 5.613281 3.652344 5.914062 2.601562 C 6.0625 2.152344 6.289062 1.777344 6.136719 1.550781 C 5.988281 1.328125 5.539062 1.25 5.164062 1.328125 C 4.488281 1.476562 2.914062 3.425781 2.761719 3.277344 C 2.6875 3.203125 3.585938 1.25 4.261719 0.875 C 4.9375 0.5 6.511719 0.652344 6.886719 1.101562 C 7.1875 1.476562 6.8125 2.152344 6.585938 2.902344 C 6.210938 4.25 5.164062 7.101562 4.113281 8.152344 C 3.4375 8.828125 2.386719 9.277344 1.710938 9.277344 C 1.1875 9.277344 0.664062 9.050781 0.4375 8.75 C 0.289062 8.453125 0.363281 8.078125 0.4375 7.550781 C 0.738281 6.351562 2.3125 2.226562 3.0625 1.925781 C 3.289062 1.851562 3.738281 2.226562 3.738281 2.226562 "/></clipPath><clipPath id="9bb7e6d463"><rect x="0" width="7" y="0" height="10"/></clipPath><clipPath id="07e54d2598"><rect x="0" width="13" y="0" height="16"/></clipPath><clipPath id="cbbc5bfccb"><path d="M 3.929688 3.476562 L 10.023438 3.476562 L 10.023438 12.804688 L 3.929688 12.804688 Z M 3.929688 3.476562 "/></clipPath><clipPath id="0337aeb3e8"><path d="M 10.023438 3.925781 C 4.851562 10.148438 3.875 12.023438 4.023438 12.550781 C 4.101562 12.773438 4.625 12.773438 4.625 12.773438 C 4.625 12.773438 4.175781 12.773438 4.023438 12.550781 C 3.800781 12.101562 4.324219 10.226562 4.925781 9.023438 C 5.824219 7.226562 8.75 3.625 9.574219 3.476562 C 9.800781 3.476562 10.023438 3.925781 10.023438 3.925781 "/></clipPath><clipPath id="46003d03c3"><path d="M 0.929688 0.476562 L 7.023438 0.476562 L 7.023438 9.804688 L 0.929688 9.804688 Z M 0.929688 0.476562 "/></clipPath><clipPath id="3f1283ead1"><path d="M 7.023438 0.925781 C 1.851562 7.148438 0.875 9.023438 1.023438 9.550781 C 1.101562 9.773438 1.625 9.773438 1.625 9.773438 C 1.625 9.773438 1.175781 9.773438 1.023438 9.550781 C 0.800781 9.101562 1.324219 7.226562 1.925781 6.023438 C 2.824219 4.226562 5.75 0.625 6.574219 0.476562 C 6.800781 0.476562 7.023438 0.925781 7.023438 0.925781 "/></clipPath><clipPath id="f3032840fa"><rect x="0" width="8" y="0" height="10"/></clipPath><clipPath id="6213990491"><rect x="0" width="14" y="0" height="16"/></clipPath></defs><g id="9f8176b2b7"><g clip-rule="nonzero" clip-path="url(#ce822f5dc2)"><path style=" stroke:none;fill-rule:nonzero;fill:#1f9cff;fill-opacity:1;" d="M 117.742188 231.753906 L 95.484375 274.058594 L 58.011719 274.058594 L 80.527344 231.753906 Z M 305.878906 126.324219 C 298.171875 118.613281 289.070312 112.394531 278.84375 107.921875 C 268.664062 103.550781 257.5625 101.339844 245.839844 101.339844 C 234.171875 101.339844 223.222656 103.449219 213.300781 107.5625 C 203.382812 111.726562 194.230469 117.996094 186.160156 126.324219 C 183.640625 128.789062 181.328125 131.359375 179.171875 134.035156 L 177.886719 135.628906 L 196.339844 170.992188 L 198.960938 165.082031 C 200.195312 162.359375 201.683594 159.683594 203.433594 157.164062 C 205.179688 154.648438 207.238281 152.230469 209.5 149.917969 C 214.535156 144.878906 220.140625 141.078125 226.203125 138.609375 C 232.167969 136.191406 238.746094 134.960938 245.789062 134.960938 C 259.976562 134.960938 271.800781 139.84375 281.875 149.917969 L 284.085938 152.128906 L 308.140625 128.585938 Z M 305.878906 126.324219 "/></g><g clip-rule="nonzero" clip-path="url(#9016ab62d7)"><path style=" stroke:none;fill-rule:nonzero;fill:#ffffff;fill-opacity:1;" d="M 245.789062 274.058594 C 238.285156 274.058594 230.984375 273.183594 224.148438 271.386719 C 217.054688 269.535156 210.269531 266.757812 203.894531 263.007812 C 197.625 259.304688 191.660156 254.628906 186.058594 249.074219 L 185.902344 248.921875 C 179.785156 242.753906 174.699219 235.660156 170.738281 227.742188 L 165.960938 218.132812 L 144.730469 175.824219 L 122.832031 219.828125 L 85.253906 219.828125 L 144.730469 100.929688 L 203.691406 218.851562 C 205.386719 221.214844 207.339844 223.527344 209.5 225.6875 C 219.316406 235.503906 231.5 240.441406 245.789062 240.441406 C 253.292969 240.441406 260.492188 238.949219 267.121094 236.019531 C 273.34375 233.089844 278.6875 229.234375 283.417969 224.246094 L 283.417969 206.152344 L 243.9375 206.152344 L 225.949219 172.792969 L 316.984375 172.792969 L 316.984375 235.144531 L 316.46875 235.917969 C 312.410156 241.980469 307.988281 247.121094 302.898438 251.59375 C 297.707031 256.375 292.257812 260.28125 286.246094 263.625 C 280.179688 267.066406 273.90625 269.585938 266.96875 271.28125 C 260.386719 273.183594 253.449219 274.058594 245.789062 274.058594 Z M 144.730469 161.84375 L 171.769531 215.664062 L 176.445312 224.96875 C 180.09375 232.265625 184.824219 238.847656 190.480469 244.550781 L 190.632812 244.707031 C 195.824219 249.898438 201.375 254.269531 207.183594 257.660156 C 213.046875 261.105469 219.265625 263.675781 225.792969 265.371094 C 232.117188 267.015625 238.851562 267.839844 245.839844 267.839844 C 252.933594 267.839844 259.308594 267.015625 265.375 265.320312 L 265.476562 265.269531 C 271.851562 263.726562 277.660156 261.414062 283.210938 258.277344 L 283.261719 258.277344 C 288.816406 255.191406 293.902344 251.542969 298.734375 247.070312 L 298.785156 247.019531 C 303.207031 243.113281 307.164062 238.640625 310.765625 233.347656 L 310.765625 179.117188 L 236.382812 179.117188 L 247.640625 199.984375 L 289.636719 199.984375 L 289.636719 226.765625 L 288.816406 227.640625 C 283.417969 233.601562 276.992188 238.332031 269.742188 241.777344 L 269.691406 241.828125 C 262.238281 245.117188 254.21875 246.761719 245.789062 246.761719 C 229.804688 246.761719 216.078125 241.160156 205.078125 230.160156 C 202.609375 227.691406 200.347656 225.019531 198.445312 222.292969 L 198.292969 222.089844 L 191.457031 208.414062 L 167.296875 160.042969 L 144.730469 114.910156 L 95.382812 213.605469 L 118.925781 213.605469 Z M 144.730469 161.84375 "/></g><g mask="url(#13c6f14be4)" transform="matrix(1,0,0,1,217,108)"><g clip-path="url(#c1be196f85)"><g clip-rule="nonzero" clip-path="url(#a92afceafc)"><g clip-rule="nonzero" clip-path="url(#db52be99a0)"><g transform="matrix(1,0,0,1,3,2)"><g id="601aa4fb13" clip-path="url(#9ed234148c)"><g clip-rule="nonzero" clip-path="url(#ab5835ed48)"><g clip-rule="nonzero" clip-path="url(#46d059f2a5)"><rect x="0" width="12" y="0" height="12" style="fill:#ffffff;fill-opacity:1;stroke:none;"/></g></g></g></g></g></g></g><mask id="13c6f14be4"><g filter="url(#408761d786)"><rect x="0" width="375" y="0" height="374.999991" style="fill:#000000;fill-opacity:0.04;stroke:none;"/></g></mask></g><g mask="url(#0307f89b44)" transform="matrix(1,0,0,1,230,106)"><g clip-path="url(#a1ca60424f)"><g clip-rule="nonzero" clip-path="url(#e50b2bd735)"><g clip-rule="nonzero" clip-path="url(#1100938961)"><g transform="matrix(1,0,0,1,3,2)"><g id="e2528e9791" clip-path="url(#83238d4be3)"><g clip-rule="nonzero" clip-path="url(#25a2226b89)"><g clip-rule="nonzero" clip-path="url(#86d35b6aee)"><rect x="0" width="8" y="0" height="12" style="fill:#ffffff;fill-opacity:1;stroke:none;"/></g></g></g></g></g></g></g><mask id="0307f89b44"><g filter="url(#408761d786)"><rect x="0" width="375" y="0" height="374.999991" style="fill:#000000;fill-opacity:0.04;stroke:none;"/></g></mask></g><g mask="url(#0f0431ac92)" transform="matrix(1,0,0,1,239,118)"><g clip-path="url(#5cbb2843ad)"><g clip-rule="nonzero" clip-path="url(#01c4c074cc)"><g clip-rule="nonzero" clip-path="url(#d3ce40a812)"><g transform="matrix(1,0,0,1,3,4)"><g id="e93e1a82dd" clip-path="url(#97d567117d)"><g clip-rule="nonzero" clip-path="url(#93154a1768)"><g clip-rule="nonzero" clip-path="url(#0cbc4ec51d)"><rect x="0" width="7" y="0" height="9" style="fill:#ffffff;fill-opacity:1;stroke:none;"/></g></g></g></g></g></g></g><mask id="0f0431ac92"><g filter="url(#408761d786)"><rect x="0" width="375" y="0" height="374.999991" style="fill:#000000;fill-opacity:0.04;stroke:none;"/></g></mask></g><g mask="url(#e3a39f771c)" transform="matrix(1,0,0,1,245,118)"><g clip-path="url(#07e54d2598)"><g clip-rule="nonzero" clip-path="url(#2c248c352b)"><g clip-rule="nonzero" clip-path="url(#759b5398d0)"><g transform="matrix(1,0,0,1,3,3)"><g id="fc3b080686" clip-path="url(#9bb7e6d463)"><g clip-rule="nonzero" clip-path="url(#479082beae)"><g clip-rule="nonzero" clip-path="url(#b68b55ff4e)"><rect x="0" width="7" y="0" height="10" style="fill:#ffffff;fill-opacity:1;stroke:none;"/></g></g></g></g></g></g></g><mask id="e3a39f771c"><g filter="url(#408761d786)"><rect x="0" width="375" y="0" height="374.999991" style="fill:#000000;fill-opacity:0.04;stroke:none;"/></g></mask></g><g mask="url(#818c958718)" transform="matrix(1,0,0,1,235,113)"><g clip-path="url(#6213990491)"><g clip-rule="nonzero" clip-path="url(#cbbc5bfccb)"><g clip-rule="nonzero" clip-path="url(#0337aeb3e8)"><g transform="matrix(1,0,0,1,3,3)"><g id="924c07687f" clip-path="url(#f3032840fa)"><g clip-rule="nonzero" clip-path="url(#46003d03c3)"><g clip-rule="nonzero" clip-path="url(#3f1283ead1)"><rect x="0" width="8" y="0" height="10" style="fill:#ffffff;fill-opacity:1;stroke:none;"/></g></g></g></g></g></g></g><mask id="818c958718"><g filter="url(#408761d786)"><rect x="0" width="375" y="0" height="374.999991" style="fill:#000000;fill-opacity:0.04;stroke:none;"/></g></mask></g></g></svg>